<svg version="1.1" id="Layer_1" xmlns="http://www.w3.org/2000/svg" xmlns:xlink="http://www.w3.org/1999/xlink" x="0px" y="0px"
	 width="100%" viewBox="0 0 280 280" enable-background="new 0 0 280 280" xml:space="preserve">
<path fill="#000000" opacity="1.000000" stroke="none" 
	d="
M143.000000,0.999999 
	C188.963776,1.000000 234.927551,1.000000 280.945679,1.000000 
	C280.945679,94.223595 280.945679,187.447235 280.945679,281.000000 
	C235.312973,281.000000 189.625137,281.000000 143.665466,280.720520 
	C147.846008,277.862000 152.303970,275.292511 156.749832,272.702240 
	C174.964554,262.089905 193.151642,251.429886 211.395355,240.867661 
	C226.757889,231.973495 242.149948,223.128738 257.610748,214.407120 
	C260.924255,212.537949 262.081970,210.180267 262.071594,206.385071 
	C261.952637,162.886856 261.923157,119.387863 262.108521,75.890099 
	C262.127045,71.542465 260.526489,69.111412 257.018250,67.183022 
	C249.450699,63.023365 241.912735,58.806183 234.437881,54.482483 
	C220.517868,46.430698 206.643951,38.299107 192.764893,30.176706 
	C176.168900,20.464285 159.587646,10.726689 143.000000,0.999999 
z"/>
<path fill="#000000" opacity="1.000000" stroke="none" 
	d="
M137.000000,281.000000 
	C91.702751,281.000000 46.405502,281.000000 1.054125,281.000000 
	C1.054125,187.777069 1.054125,94.554092 1.054125,1.000000 
	C45.353680,1.000000 89.708183,1.000000 134.649323,1.350340 
	C133.583496,3.031028 132.069351,4.598450 130.257416,5.655402 
	C109.986481,17.480024 89.697540,29.274454 69.355766,40.976765 
	C54.700928,49.407478 39.990582,57.743214 25.238544,66.002640 
	C20.357967,68.735199 17.818653,72.075203 17.859549,78.226707 
	C18.136290,119.854492 18.206217,161.486938 17.808334,203.112747 
	C17.740681,210.190430 20.653019,213.513367 26.249380,216.517487 
	C36.911224,222.240768 47.309410,228.456909 57.793579,234.509094 
	C72.691467,243.109161 87.602798,251.686874 102.442772,260.386047 
	C114.013695,267.168945 125.484627,274.122375 137.000000,281.000000 
z"/>
<path fill="#941821" opacity="1.000000" stroke="none" 
	d="
M137.428467,281.000000 
	C125.484627,274.122375 114.013695,267.168945 102.442772,260.386047 
	C87.602798,251.686874 72.691467,243.109161 57.793579,234.509094 
	C47.309410,228.456909 36.911224,222.240768 26.249380,216.517487 
	C20.653019,213.513367 17.740681,210.190430 17.808334,203.112747 
	C18.206217,161.486938 18.136290,119.854492 17.859549,78.226707 
	C17.818653,72.075203 20.357967,68.735199 25.238544,66.002640 
	C39.990582,57.743214 54.700928,49.407478 69.355766,40.976765 
	C89.697540,29.274454 109.986481,17.480024 130.257416,5.655402 
	C132.069351,4.598450 133.583496,3.031028 135.117981,1.350340 
	C137.370560,1.000000 139.741104,1.000000 142.555832,0.999999 
	C159.587646,10.726689 176.168900,20.464285 192.764893,30.176706 
	C206.643951,38.299107 220.517868,46.430698 234.437881,54.482483 
	C241.912735,58.806183 249.450699,63.023365 257.018250,67.183022 
	C260.526489,69.111412 262.127045,71.542465 262.108521,75.890099 
	C261.923157,119.387863 261.952637,162.886856 262.071594,206.385071 
	C262.081970,210.180267 260.924255,212.537949 257.610748,214.407120 
	C242.149948,223.128738 226.757889,231.973495 211.395355,240.867661 
	C193.151642,251.429886 174.964554,262.089905 156.749832,272.702240 
	C152.303970,275.292511 147.846008,277.862000 143.196808,280.720520 
	C141.285645,281.000000 139.571289,281.000000 137.428467,281.000000 
M252.063904,119.073112 
	C252.010361,112.715004 251.956818,106.356903 252.069290,99.075043 
	C252.014084,92.715317 251.958878,86.355591 252.063873,79.239258 
	C251.545685,78.103592 251.341553,76.459412 250.458710,75.914177 
	C244.381348,72.160820 238.162155,68.637115 231.522430,64.489426 
	C226.012955,61.408604 220.503464,58.327782 214.390747,54.885178 
	C210.783432,52.851536 207.176102,50.817898 203.071167,48.224575 
	C199.827103,46.435253 196.583054,44.645935 192.888733,42.324314 
	C189.923462,40.635052 186.958191,38.945793 183.298569,36.937794 
	C178.863098,34.376289 174.427612,31.814781 169.441986,28.804382 
	C164.694183,26.174774 159.946381,23.545166 154.790268,20.337427 
	C151.571732,18.538006 148.353180,16.738583 144.688400,14.412650 
	C141.516251,11.862887 138.489624,12.446778 135.294556,14.551989 
	C131.571976,17.004787 127.672203,19.188694 123.143715,21.689768 
	C116.935371,25.155357 110.680489,28.540531 104.527031,32.100986 
	C82.299675,44.961987 60.281857,58.200245 37.797466,70.593086 
	C30.700136,74.504959 26.544670,78.577156 28.168837,87.036919 
	C28.725315,89.935448 28.410465,93.001244 28.286764,96.862160 
	C28.356865,99.243866 28.426964,101.625572 28.289850,104.914955 
	C28.360298,109.277077 28.430746,113.639191 28.289051,118.915825 
	C28.359266,125.277016 28.429482,131.638199 28.287973,138.914688 
	C28.358732,147.935822 28.429491,156.956970 28.288033,166.896790 
	C28.358469,175.264374 28.428905,183.631943 28.290859,192.903839 
	C26.362261,202.398270 29.682074,208.895325 39.138233,211.877655 
	C39.610176,212.026505 40.109810,212.087570 41.000706,212.745819 
	C43.335556,214.093689 45.670406,215.441559 48.546825,217.229736 
	C52.365093,219.450729 56.183357,221.671738 60.601898,224.249115 
	C64.708244,226.558426 68.814598,228.867737 73.320831,231.731903 
	C77.204315,233.842346 81.087791,235.952789 85.373154,238.619003 
	C90.248459,241.332123 95.123764,244.045242 100.544151,247.210648 
	C105.339012,249.872086 110.133873,252.533539 115.306160,255.750626 
	C122.322624,259.838196 129.363861,263.884094 136.342911,268.034546 
	C138.991959,269.609955 141.262344,269.726410 144.057129,268.002625 
	C149.982025,264.348114 156.198761,261.170868 162.228348,257.681274 
	C180.005325,247.393021 197.747665,237.044937 215.506989,226.726135 
	C226.822800,220.151260 238.181610,213.648529 249.412445,206.931717 
	C250.672165,206.178314 251.980316,204.242981 251.987717,202.848938 
	C252.090347,183.565552 251.969147,164.280991 252.063202,144.071869 
	C252.009109,136.046951 251.955017,128.022034 252.063904,119.073112 
z"/>
<path fill="#FFEAAE" opacity="1.000000" stroke="none" 
	d="
M251.902725,144.996704 
	C251.969147,164.280991 252.090347,183.565552 251.987717,202.848938 
	C251.980316,204.242981 250.672165,206.178314 249.412445,206.931717 
	C238.181610,213.648529 226.822800,220.151260 215.506989,226.726135 
	C197.747665,237.044937 180.005325,247.393021 162.228348,257.681274 
	C156.198761,261.170868 149.982025,264.348114 144.057129,268.002625 
	C141.262344,269.726410 138.991959,269.609955 136.342911,268.034546 
	C129.363861,263.884094 122.322624,259.838196 115.191772,255.124344 
	C121.817543,248.937500 128.434296,243.218216 135.329910,237.857605 
	C143.453812,231.542145 151.905548,225.649506 160.060257,219.372299 
	C173.072403,209.356003 186.024734,199.258850 198.858704,189.015869 
	C203.451996,185.349899 207.628571,181.161804 212.352280,177.194916 
	C220.713608,177.733017 225.583038,174.480743 224.844009,169.070572 
	C222.489319,169.119827 219.252640,174.822952 218.334625,167.983673 
	C224.191956,164.085999 229.655014,160.163116 235.185272,156.337402 
	C240.722794,152.506638 246.327484,148.772934 251.902725,144.996704 
z"/>
<path fill="#FFF8E5" opacity="1.000000" stroke="none" 
	d="
M169.992142,29.253273 
	C174.427612,31.814781 178.863098,34.376289 183.566498,37.417187 
	C183.497940,38.461250 183.289017,39.189049 182.806213,39.566589 
	C172.122513,47.920898 161.404617,56.231422 150.701385,64.560783 
	C138.434753,74.106804 126.176033,83.662994 113.529549,93.148727 
	C103.726837,95.108208 103.731926,95.108368 103.444160,104.082161 
	C103.423538,104.725311 103.250237,105.363571 102.774902,106.018890 
	C101.618004,106.258507 100.685066,106.282860 100.072639,106.738251 
	C90.947014,113.523827 81.812943,120.301079 72.839653,127.284340 
	C71.804649,128.089798 71.720207,130.116714 70.906876,131.751572 
	C62.436359,135.058105 56.921730,140.665085 54.194679,149.209442 
	C47.395973,153.780212 41.025639,158.419281 34.542042,162.894257 
	C32.697361,164.167435 30.523275,164.963333 28.500252,165.978104 
	C28.429491,156.956970 28.358732,147.935822 28.743385,138.447678 
	C30.663431,137.316101 32.322300,136.904160 33.563843,135.949478 
	C55.639736,118.974350 77.629486,101.887161 99.711914,84.920601 
	C118.377701,70.579132 137.207520,56.450356 155.810913,42.029003 
	C160.825684,38.141556 165.280365,33.531586 169.992142,29.253273 
z"/>
<path fill="#FFFAEC" opacity="1.000000" stroke="none" 
	d="
M169.717072,29.028828 
	C165.280365,33.531586 160.825684,38.141556 155.810913,42.029003 
	C137.207520,56.450356 118.377701,70.579132 99.711914,84.920601 
	C77.629486,101.887161 55.639736,118.974350 33.563843,135.949478 
	C32.322300,136.904160 30.663431,137.316101 28.849245,137.990021 
	C28.429482,131.638199 28.359266,125.277016 28.731583,118.429169 
	C30.654123,117.237419 32.314133,116.767235 33.587009,115.791847 
	C51.367599,102.166924 69.087524,88.462875 86.838219,74.798889 
	C102.220573,62.957973 117.693489,51.233315 132.987015,39.278992 
	C140.552872,33.365074 147.804688,27.049442 155.198578,20.915560 
	C159.946381,23.545166 164.694183,26.174774 169.717072,29.028828 
z"/>
<path fill="#FFF1CB" opacity="1.000000" stroke="none" 
	d="
M231.988602,65.039536 
	C238.162155,68.637115 244.381348,72.160820 250.458710,75.914177 
	C251.341553,76.459412 251.545685,78.103592 251.624939,79.638275 
	C244.537018,84.774689 237.972336,89.636993 231.207687,94.203011 
	C227.098328,96.976761 222.680054,99.292824 218.305466,101.517426 
	C217.576721,100.893532 216.761169,100.132004 216.338287,100.308945 
	C213.093933,101.666420 209.925919,103.206314 206.602631,104.750664 
	C207.142960,107.660179 207.638809,110.330276 207.783630,113.060165 
	C202.380646,116.783829 197.211838,120.299797 192.319992,124.166206 
	C189.315338,126.541008 186.734512,129.452026 183.557404,132.117188 
	C178.112595,132.479431 172.566971,131.619507 168.132706,133.450745 
	C156.202850,138.377411 152.099518,148.733368 151.523941,161.062286 
	C149.123886,163.098999 147.062012,165.066925 144.706146,167.214874 
	C142.878433,168.122787 141.344711,168.850647 139.810974,169.578522 
	C139.287216,167.943893 138.333145,166.315048 138.311005,164.673660 
	C138.186569,155.449158 138.286575,146.221603 138.673599,136.988205 
	C140.979950,136.138382 143.177917,135.634735 144.823532,134.396835 
	C154.636963,127.014648 164.320480,119.459846 174.052139,111.968872 
	C192.473389,97.789062 210.920151,83.642136 229.271713,69.372742 
	C230.536041,68.389648 231.099304,66.504944 231.988602,65.039536 
z"/>
<path fill="#FFF3D3" opacity="1.000000" stroke="none" 
	d="
M231.755524,64.764481 
	C231.099304,66.504944 230.536041,68.389648 229.271713,69.372742 
	C210.920151,83.642136 192.473389,97.789062 174.052139,111.968872 
	C164.320480,119.459846 154.636963,127.014648 144.823532,134.396835 
	C143.177917,135.634735 140.979950,136.138382 138.563614,136.628036 
	C134.621246,128.477295 131.496613,127.461685 125.084114,132.498718 
	C122.960060,134.167175 121.165710,136.469818 119.780296,138.813370 
	C117.757675,142.234848 116.240387,145.955063 114.080704,150.433289 
	C114.080704,144.217865 114.080704,139.108078 114.437943,133.980103 
	C115.830009,133.495163 117.004974,133.209366 117.877846,132.533447 
	C125.998642,126.245071 134.019302,119.826965 142.160553,113.565514 
	C165.406906,95.686668 188.716782,77.890289 211.917618,59.952747 
	C213.318466,58.869694 213.985504,56.837505 214.993988,55.246956 
	C220.503464,58.327782 226.012955,61.408604 231.755524,64.764481 
z"/>
<path fill="#FFECB4" opacity="1.000000" stroke="none" 
	d="
M211.995346,177.212021 
	C207.628571,181.161804 203.451996,185.349899 198.858704,189.015869 
	C186.024734,199.258850 173.072403,209.356003 160.060257,219.372299 
	C151.905548,225.649506 143.453812,231.542145 135.329910,237.857605 
	C128.434296,243.218216 121.817543,248.937500 115.003059,254.846527 
	C110.133873,252.533539 105.339012,249.872086 100.351746,246.666550 
	C104.469673,242.555359 108.686234,238.867279 113.106201,235.441650 
	C134.703766,218.702820 156.406143,202.098633 177.932495,185.269119 
	C181.075821,182.811646 183.471344,179.397659 186.635345,176.470917 
	C194.970108,177.644867 201.388901,173.618484 199.969101,168.416565 
	C194.053696,172.029205 192.835175,171.627716 193.042023,165.959274 
	C195.293915,164.926895 197.186508,163.972198 199.047485,162.959396 
	C201.424271,161.665894 203.775543,160.325485 206.265350,159.427979 
	C206.509186,163.338135 205.992661,167.010864 206.942215,170.254410 
	C207.700546,172.844711 210.244156,174.912384 211.995346,177.212021 
z"/>
<path fill="#FFF3D5" opacity="1.000000" stroke="none" 
	d="
M40.596550,212.189499 
	C40.109810,212.087570 39.610176,212.026505 39.138233,211.877655 
	C29.682074,208.895325 26.362261,202.398270 28.731480,192.422226 
	C35.093060,187.806137 41.130989,183.826874 46.894360,179.483307 
	C50.817673,176.526489 54.356712,173.059799 58.371567,169.978668 
	C69.939964,183.255768 90.736008,173.888290 94.513000,161.575775 
	C92.490608,162.550217 90.776886,163.899185 89.144600,165.340393 
	C81.892288,171.743759 74.689133,171.926071 68.662766,165.488434 
	C77.662621,158.384567 86.404915,151.565277 95.258347,144.893433 
	C97.720116,143.038269 100.511116,141.619980 103.282425,140.454041 
	C103.330566,149.257797 103.247345,157.608780 102.840485,166.106033 
	C93.907074,172.445877 85.214073,178.527603 76.707481,184.859772 
	C64.598732,193.873276 52.626881,203.070663 40.596550,212.189499 
z"/>
<path fill="#FFEDBA" opacity="1.000000" stroke="none" 
	d="
M186.212891,176.426270 
	C183.471344,179.397659 181.075821,182.811646 177.932495,185.269119 
	C156.406143,202.098633 134.703766,218.702820 113.106201,235.441650 
	C108.686234,238.867279 104.469673,242.555359 100.079208,246.440399 
	C95.123764,244.045242 90.248459,241.332123 85.343666,238.047379 
	C96.997475,228.241425 108.669746,218.993103 120.366928,209.776382 
	C134.266830,198.824097 148.188156,187.898987 162.488831,176.959656 
	C171.443024,179.333481 176.802582,174.464417 180.641342,169.020523 
	C182.633667,171.668732 184.423279,174.047501 186.212891,176.426270 
z"/>
<path fill="#FEEFC2" opacity="1.000000" stroke="none" 
	d="
M218.400543,101.814491 
	C222.680054,99.292824 227.098328,96.976761 231.207687,94.203011 
	C237.972336,89.636993 244.537018,84.774689 251.544830,80.016571 
	C251.958878,86.355591 252.014084,92.715317 251.645081,99.602242 
	C250.046173,100.723083 248.741516,101.147873 247.716782,101.936417 
	C237.105606,110.101967 226.475647,118.245949 216.005829,126.590332 
	C213.380249,128.682907 211.309387,131.471481 208.758881,134.116608 
	C207.829575,134.577057 207.124969,134.861053 206.050323,135.163605 
	C201.194794,138.235825 196.709290,141.289520 191.825409,144.489105 
	C188.314667,145.665817 185.202316,146.696640 183.178848,147.366806 
	C181.514053,154.214111 180.536758,160.452148 178.315475,166.210312 
	C177.497864,168.329788 173.645691,170.637131 171.353836,170.468231 
	C168.781158,170.278625 165.561234,167.904221 164.121643,165.559982 
	C160.998779,160.474701 161.133957,154.645538 163.195770,148.937073 
	C165.559479,148.193130 167.762100,147.774551 169.448242,146.608871 
	C172.852310,144.255524 175.975739,141.496231 179.555084,138.942200 
	C181.160080,140.195389 182.424911,141.410751 183.662552,142.599976 
	C186.377792,141.506729 189.182709,140.377365 193.684875,138.564651 
	C189.713211,135.932648 186.838287,134.027451 183.963364,132.122253 
	C186.734512,129.452026 189.315338,126.541008 192.319992,124.166206 
	C197.211838,120.299797 202.380646,116.783829 208.009003,113.380707 
	C209.124115,116.485802 209.662811,119.330147 210.185501,122.089966 
	C214.275803,121.906464 216.235336,120.580627 216.397919,116.461868 
	C216.591385,111.560692 217.692627,106.695358 218.400543,101.814491 
z"/>
<path fill="#FFFCF2" opacity="1.000000" stroke="none" 
	d="
M154.994415,20.626495 
	C147.804688,27.049442 140.552872,33.365074 132.987015,39.278992 
	C117.693489,51.233315 102.220573,62.957973 86.838219,74.798889 
	C69.087524,88.462875 51.367599,102.166924 33.587009,115.791847 
	C32.314133,116.767235 30.654123,117.237419 28.837654,117.971909 
	C28.430746,113.639191 28.360298,109.277077 28.741669,104.453125 
	C35.344563,99.925789 41.765915,96.212341 47.599823,91.733696 
	C72.562218,72.570244 97.394051,53.235668 122.178688,33.842312 
	C129.982849,27.735750 137.491013,21.250881 145.134644,14.939159 
	C148.353180,16.738583 151.571732,18.538006 154.994415,20.626495 
z"/>
<path fill="#FFF5D9" opacity="1.000000" stroke="none" 
	d="
M214.692352,55.066067 
	C213.985504,56.837505 213.318466,58.869694 211.917618,59.952747 
	C188.716782,77.890289 165.406906,95.686668 142.160553,113.565514 
	C134.019302,119.826965 125.998642,126.245071 117.877846,132.533447 
	C117.004974,133.209366 115.830009,133.495163 114.350464,133.519745 
	C113.964409,127.717987 114.023079,122.358398 114.418091,116.928574 
	C116.434105,115.799225 118.212753,114.868462 119.778328,113.661346 
	C137.510040,99.989532 155.212936,86.280342 172.915466,72.570709 
	C183.140854,64.651711 193.351501,56.713707 203.568787,48.784256 
	C207.176102,50.817898 210.783432,52.851536 214.692352,55.066067 
z"/>
<path fill="#FEEDBF" opacity="1.000000" stroke="none" 
	d="
M162.100189,176.962097 
	C148.188156,187.898987 134.266830,198.824097 120.366928,209.776382 
	C108.669746,218.993103 96.997475,228.241425 85.142723,237.769501 
	C81.087791,235.952789 77.204315,233.842346 73.289352,231.152008 
	C80.324059,224.831070 87.292526,218.964447 94.477051,213.375549 
	C108.752319,202.270721 123.186317,191.369598 137.426559,180.220596 
	C138.763824,179.173645 139.189484,176.962326 140.283417,175.116791 
	C142.470810,172.561768 147.333771,171.833237 145.000122,167.034851 
	C147.062012,165.066925 149.123886,163.098999 151.623032,161.442841 
	C152.782242,168.556595 155.623962,173.959076 162.100189,176.962097 
z"/>
<path fill="#FEEEC7" opacity="1.000000" stroke="none" 
	d="
M60.001625,223.892746 
	C56.183357,221.671738 52.365093,219.450729 48.296268,216.660278 
	C49.379490,214.270386 50.382603,212.021637 52.098892,210.696716 
	C67.037811,199.164352 82.066795,187.747040 97.184761,176.450439 
	C98.922615,175.151871 101.368561,174.800934 103.492020,174.428955 
	C104.277641,175.472763 105.530624,176.781494 105.764885,176.619247 
	C108.455536,174.755859 113.130646,176.668015 114.114052,171.262985 
	C115.731300,162.374222 118.039124,153.585892 120.577980,144.907974 
	C121.204071,142.767975 123.842201,141.216614 125.976891,138.946411 
	C126.838753,140.840012 127.204605,141.277435 127.216797,141.724472 
	C127.482948,151.482773 127.709778,161.242157 127.609314,171.068924 
	C122.599030,174.523911 117.848618,177.813141 113.262260,181.317123 
	C99.592407,191.760834 85.924973,202.209839 72.392220,212.829590 
	C68.045135,216.240936 64.119873,220.189804 60.001625,223.892746 
z"/>
<path fill="#FEFBF6" opacity="1.000000" stroke="none" 
	d="
M28.493700,95.990623 
	C28.410465,93.001244 28.725315,89.935448 28.168837,87.036919 
	C26.544670,78.577156 30.700136,74.504959 37.797466,70.593086 
	C60.281857,58.200245 82.299675,44.961987 104.527031,32.100986 
	C110.680489,28.540531 116.935371,25.155357 123.480438,21.963181 
	C122.642632,23.763077 121.717606,25.605410 120.251892,26.763271 
	C112.459618,32.918839 104.493095,38.853138 96.658470,44.955910 
	C76.544739,60.623489 56.502487,76.383171 36.330914,91.975685 
	C34.048054,93.740326 31.121675,94.672455 28.493700,95.990623 
z"/>
<path fill="#FFF0C5" opacity="1.000000" stroke="none" 
	d="
M60.301762,224.070923 
	C64.119873,220.189804 68.045135,216.240936 72.392220,212.829590 
	C85.924973,202.209839 99.592407,191.760834 113.262260,181.317123 
	C117.848618,177.813141 122.599030,174.523911 127.834885,171.349152 
	C130.847336,177.265869 135.484940,176.147369 140.038391,175.291611 
	C139.189484,176.962326 138.763824,179.173645 137.426559,180.220596 
	C123.186317,191.369598 108.752319,202.270721 94.477051,213.375549 
	C87.292526,218.964447 80.324059,224.831070 73.089417,230.874573 
	C68.814598,228.867737 64.708244,226.558426 60.301762,224.070923 
z"/>
<path fill="#FFF6DD" opacity="1.000000" stroke="none" 
	d="
M203.319977,48.504417 
	C193.351501,56.713707 183.140854,64.651711 172.915466,72.570709 
	C155.212936,86.280342 137.510040,99.989532 119.778328,113.661346 
	C118.212753,114.868462 116.434105,115.799225 114.329597,116.472672 
	C113.963432,112.057686 114.022095,108.028366 114.437668,103.980774 
	C115.949257,103.382797 117.235687,102.973480 118.238770,102.197769 
	C132.499817,91.169189 146.783463,80.168221 160.934769,68.999840 
	C171.828476,60.402382 182.544159,51.579346 193.338989,42.856613 
	C196.583054,44.645935 199.827103,46.435253 203.319977,48.504417 
z"/>
<path fill="#FEFBF4" opacity="1.000000" stroke="none" 
	d="
M28.390232,96.426392 
	C31.121675,94.672455 34.048054,93.740326 36.330914,91.975685 
	C56.502487,76.383171 76.544739,60.623489 96.658470,44.955910 
	C104.493095,38.853138 112.459618,32.918839 120.251892,26.763271 
	C121.717606,25.605410 122.642632,23.763077 123.833237,21.862938 
	C127.672203,19.188694 131.571976,17.004787 135.294556,14.551989 
	C138.489624,12.446778 141.516251,11.862887 144.911530,14.675903 
	C137.491013,21.250881 129.982849,27.735750 122.178688,33.842312 
	C97.394051,53.235668 72.562218,72.570244 47.599823,91.733696 
	C41.765915,96.212341 35.344563,99.925789 28.845276,103.999283 
	C28.426964,101.625572 28.356865,99.243866 28.390232,96.426392 
z"/>
<path fill="#FFF7E1" opacity="1.000000" stroke="none" 
	d="
M193.113861,42.590466 
	C182.544159,51.579346 171.828476,60.402382 160.934769,68.999840 
	C146.783463,80.168221 132.499817,91.169189 118.238770,102.197769 
	C117.235687,102.973480 115.949257,103.382797 114.348656,103.534805 
	C113.906441,99.809669 113.910156,96.512222 113.913879,93.214767 
	C126.176033,83.662994 138.434753,74.106804 150.701385,64.560783 
	C161.404617,56.231422 172.122513,47.920898 182.806213,39.566589 
	C183.289017,39.189049 183.497940,38.461250 183.913666,37.576557 
	C186.958191,38.945793 189.923462,40.635052 193.113861,42.590466 
z"/>
<path fill="#FFEDB7" opacity="1.000000" stroke="none" 
	d="
M251.982971,144.534286 
	C246.327484,148.772934 240.722794,152.506638 235.185272,156.337402 
	C229.655014,160.163116 224.191956,164.085999 218.229645,167.525070 
	C217.827591,158.722931 217.895340,150.362015 218.335083,141.983673 
	C224.934586,137.680847 231.112061,133.320236 237.405960,129.134674 
	C242.160461,125.972824 247.063812,123.034767 251.900909,119.997116 
	C251.955017,128.022034 252.009109,136.046951 251.982971,144.534286 
z"/>
<path fill="#FFF6DB" opacity="1.000000" stroke="none" 
	d="
M58.067581,169.821091 
	C54.356712,173.059799 50.817673,176.526489 46.894360,179.483307 
	C41.130989,183.826874 35.093060,187.806137 28.835722,191.970062 
	C28.428905,183.631943 28.358469,175.264374 28.394142,166.437439 
	C30.523275,164.963333 32.697361,164.167435 34.542042,162.894257 
	C41.025639,158.419281 47.395973,153.780212 54.146141,149.657959 
	C53.119347,157.147354 54.430473,163.695755 58.067581,169.821091 
z"/>
<path fill="#FFEFBE" opacity="1.000000" stroke="none" 
	d="
M251.982407,119.535110 
	C247.063812,123.034767 242.160461,125.972824 237.405960,129.134674 
	C231.112061,133.320236 224.934586,137.680847 218.230499,141.542908 
	C217.753937,138.121872 217.753937,135.124176 217.753937,131.684967 
	C214.242401,132.587921 211.612991,133.264038 208.983582,133.940155 
	C211.309387,131.471481 213.380249,128.682907 216.005829,126.590332 
	C226.475647,118.245949 237.105606,110.101967 247.716782,101.936417 
	C248.741516,101.147873 250.046173,100.723083 251.562073,100.064117 
	C251.956818,106.356903 252.010361,112.715004 251.982407,119.535110 
z"/>
<path fill="#FCEAC7" opacity="1.000000" stroke="none" 
	d="
M103.486198,174.010620 
	C101.368561,174.800934 98.922615,175.151871 97.184761,176.450439 
	C82.066795,187.747040 67.037811,199.164352 52.098892,210.696716 
	C50.382603,212.021637 49.379490,214.270386 48.025482,216.440125 
	C45.670406,215.441559 43.335556,214.093689 40.798630,212.467651 
	C52.626881,203.070663 64.598732,193.873276 76.707481,184.859772 
	C85.214073,178.527603 93.907074,172.445877 102.978409,166.472229 
	C103.455391,169.131638 103.470795,171.571121 103.486198,174.010620 
z"/>
<path fill="#A71109" opacity="1.000000" stroke="none" 
	d="
M208.758881,134.116608 
	C211.612991,133.264038 214.242401,132.587921 217.753937,131.684967 
	C217.753937,135.124176 217.753937,138.121872 217.858521,141.560333 
	C217.895340,150.362015 217.827591,158.722931 217.864822,167.542450 
	C219.252640,174.822952 222.489319,169.119827 224.844009,169.070572 
	C225.583038,174.480743 220.713608,177.733017 212.352280,177.194916 
	C210.244156,174.912384 207.700546,172.844711 206.942215,170.254410 
	C205.992661,167.010864 206.509186,163.338135 206.384674,158.971985 
	C206.391113,150.443878 206.405731,142.794464 206.420364,135.145050 
	C207.124969,134.861053 207.829575,134.577057 208.758881,134.116608 
z"/>
<path fill="#A60D07" opacity="1.000000" stroke="none" 
	d="
M103.492020,174.428955 
	C103.470795,171.571121 103.455391,169.131638 103.302055,166.325943 
	C103.247345,157.608780 103.330566,149.257797 103.409927,140.001343 
	C103.320503,133.731537 103.234932,128.367233 103.277199,122.550125 
	C103.319336,116.732918 103.233635,111.368515 103.147934,106.004105 
	C103.250237,105.363571 103.423538,104.725311 103.444160,104.082161 
	C103.731926,95.108368 103.726837,95.108208 113.529549,93.148727 
	C113.910156,96.512222 113.906441,99.809669 113.991745,103.553085 
	C114.022095,108.028366 113.963432,112.057686 113.993256,116.542908 
	C114.023079,122.358398 113.964409,127.717987 113.993225,133.537933 
	C114.080704,139.108078 114.080704,144.217865 114.080704,150.433289 
	C116.240387,145.955063 117.757675,142.234848 119.780296,138.813370 
	C121.165710,136.469818 122.960060,134.167175 125.084114,132.498718 
	C131.496613,127.461685 134.621246,128.477295 138.200012,136.634933 
	C138.286575,146.221603 138.186569,155.449158 138.311005,164.673660 
	C138.333145,166.315048 139.287216,167.943893 139.810974,169.578522 
	C141.344711,168.850647 142.878433,168.122787 144.706146,167.214874 
	C147.333771,171.833237 142.470810,172.561768 140.283417,175.116791 
	C135.484940,176.147369 130.847336,177.265869 128.169739,171.281555 
	C127.709778,161.242157 127.482948,151.482773 127.216797,141.724472 
	C127.204605,141.277435 126.838753,140.840012 125.976891,138.946411 
	C123.842201,141.216614 121.204071,142.767975 120.577980,144.907974 
	C118.039124,153.585892 115.731300,162.374222 114.114052,171.262985 
	C113.130646,176.668015 108.455536,174.755859 105.764885,176.619247 
	C105.530624,176.781494 104.277641,175.472763 103.492020,174.428955 
z"/>
<path fill="#A71009" opacity="1.000000" stroke="none" 
	d="
M58.371563,169.978668 
	C54.430473,163.695755 53.119347,157.147354 54.531521,149.663971 
	C56.921730,140.665085 62.436359,135.058105 71.315369,131.675018 
	C77.579544,129.060303 82.974274,130.254181 88.596222,132.493790 
	C90.164223,133.964340 91.467667,135.157913 93.337738,136.870377 
	C90.037254,138.608002 87.266083,140.066956 84.501228,141.522583 
	C80.168938,135.000000 73.913643,133.954712 68.075569,138.675003 
	C61.005318,144.391556 61.193523,158.142654 68.447205,165.828720 
	C74.689133,171.926071 81.892288,171.743759 89.144600,165.340393 
	C90.776886,163.899185 92.490608,162.550217 94.513000,161.575775 
	C90.736008,173.888290 69.939964,183.255768 58.371563,169.978668 
z"/>
<path fill="#FFF6DF" opacity="1.000000" stroke="none" 
	d="
M88.331665,132.216827 
	C82.974274,130.254181 77.579544,129.060303 71.603531,131.500763 
	C71.720207,130.116714 71.804649,128.089798 72.839653,127.284340 
	C81.812943,120.301079 90.947014,113.523827 100.072639,106.738251 
	C100.685066,106.282860 101.618004,106.258507 102.774902,106.018890 
	C103.233635,111.368515 103.319336,116.732918 102.918190,122.604584 
	C100.889008,123.965004 99.282684,124.721481 97.817467,125.691170 
	C94.617493,127.808907 91.489227,130.035004 88.331665,132.216827 
z"/>
<path fill="#A50D06" opacity="1.000000" stroke="none" 
	d="
M162.488831,176.959656 
	C155.623962,173.959076 152.782242,168.556595 151.961212,161.374069 
	C152.099518,148.733368 156.202850,138.377411 168.132706,133.450745 
	C172.566971,131.619507 178.112595,132.479431 183.557404,132.117188 
	C186.838287,134.027451 189.713211,135.932648 193.684875,138.564651 
	C189.182709,140.377365 186.377792,141.506729 183.662552,142.599976 
	C182.424911,141.410751 181.160080,140.195389 179.304321,138.658203 
	C175.293579,135.869171 171.832108,136.514099 169.304764,139.291260 
	C166.724258,142.126831 164.936066,145.683441 162.801025,148.924393 
	C161.133957,154.645538 160.998779,160.474701 164.121643,165.559982 
	C165.561234,167.904221 168.781158,170.278625 171.353836,170.468231 
	C173.645691,170.637131 177.497864,168.329788 178.315475,166.210312 
	C180.536758,160.452148 181.514053,154.214111 183.178848,147.366806 
	C185.202316,146.696640 188.314667,145.665817 191.853470,144.948883 
	C192.409500,152.178879 192.539093,159.095016 192.668671,166.011154 
	C192.835175,171.627716 194.053696,172.029205 199.969101,168.416565 
	C201.388901,173.618484 194.970108,177.644867 186.635345,176.470917 
	C184.423279,174.047501 182.633667,171.668732 180.641342,169.020523 
	C176.802582,174.464417 171.443024,179.333481 162.488831,176.959656 
z"/>
<path fill="#A60F07" opacity="1.000000" stroke="none" 
	d="
M218.305466,101.517426 
	C217.692627,106.695358 216.591385,111.560692 216.397919,116.461868 
	C216.235336,120.580627 214.275803,121.906464 210.185501,122.089966 
	C209.662811,119.330147 209.124115,116.485802 208.360046,113.320908 
	C207.638809,110.330276 207.142960,107.660179 206.602631,104.750664 
	C209.925919,103.206314 213.093933,101.666420 216.338287,100.308945 
	C216.761169,100.132004 217.576721,100.893532 218.305466,101.517426 
z"/>
<path fill="#FFEFBE" opacity="1.000000" stroke="none" 
	d="
M193.042023,165.959274 
	C192.539093,159.095016 192.409500,152.178879 192.251862,144.802979 
	C196.709290,141.289520 201.194794,138.235825 206.050323,135.163605 
	C206.405731,142.794464 206.391113,150.443878 206.257141,158.549286 
	C203.775543,160.325485 201.424271,161.665894 199.047485,162.959396 
	C197.186508,163.972198 195.293915,164.926895 193.042023,165.959274 
z"/>
<path fill="#FEF4DA" opacity="1.000000" stroke="none" 
	d="
M88.596230,132.493790 
	C91.489227,130.035004 94.617493,127.808907 97.817467,125.691170 
	C99.282684,124.721481 100.889008,123.965004 102.790344,123.057381 
	C103.234932,128.367233 103.320503,133.731537 103.278572,139.548553 
	C100.511116,141.619980 97.720116,143.038269 95.258347,144.893433 
	C86.404915,151.565277 77.662621,158.384567 68.662766,165.488434 
	C61.193523,158.142654 61.005318,144.391556 68.075569,138.675003 
	C73.913643,133.954712 80.168938,135.000000 84.501228,141.522583 
	C87.266083,140.066956 90.037254,138.608002 93.337738,136.870377 
	C91.467667,135.157913 90.164223,133.964340 88.596230,132.493790 
z"/>
<path fill="#FEEEC3" opacity="1.000000" stroke="none" 
	d="
M163.195770,148.937073 
	C164.936066,145.683441 166.724258,142.126831 169.304764,139.291260 
	C171.832108,136.514099 175.293579,135.869171 178.964172,138.620377 
	C175.975739,141.496231 172.852310,144.255524 169.448242,146.608871 
	C167.762100,147.774551 165.559479,148.193130 163.195770,148.937073 
z"/>
</svg>